<?xml version="1.0" standalone="no"?>
<!DOCTYPE svg PUBLIC "-//W3C//DTD SVG 20010904//EN" "http://www.w3.org/TR/2001/REC-SVG-20010904/DTD/svg10.dtd">
<svg version="1.0" xmlns="http://www.w3.org/2000/svg"
    width="512.000000pt" height="512.000000pt" viewBox="0 0 512.000000 512.000000"
    preserveAspectRatio="xMidYMid meet">

    <g transform="translate(0.000000,512.000000) scale(0.100000,-0.100000)"
        fill="#000000" stroke="none">
        <path d="M4105 5029 c-349 -69 -597 -323 -656 -673 -30 -177 17 -391 120 -549
l49 -74 -307 -307 -306 -306 -398 0 -398 0 -24 -25 c-16 -15 -25 -36 -25 -55
0 -19 9 -40 25 -55 l24 -25 376 0 375 0 0 -95 c0 -88 2 -98 25 -120 32 -33 78
-33 110 0 24 23 25 30 25 142 l0 118 306 306 307 307 74 -49 c136 -88 259
-124 433 -124 226 0 408 75 564 231 156 156 231 338 231 564 0 174 -36 298
-124 432 -113 173 -274 288 -481 345 -68 18 -258 25 -325 12z m270 -164 c216
-45 409 -223 478 -440 31 -99 31 -271 0 -370 -63 -199 -229 -365 -428 -428
-99 -31 -271 -31 -370 0 -163 52 -309 175 -383 323 -95 189 -95 390 -2 576
132 262 417 399 705 339z" />
        <path d="M4160 4707 c-49 -16 -133 -102 -148 -153 -22 -75 -12 -146 29 -205
l19 -27 -48 -13 c-61 -17 -142 -96 -160 -155 -7 -23 -12 -92 -12 -153 0 -105
1 -113 25 -136 l24 -25 351 0 351 0 24 25 c24 23 25 31 25 136 0 137 -11 177
-68 240 -33 36 -57 53 -97 65 l-54 17 18 26 c63 91 53 204 -26 291 -65 72
-158 97 -253 67z m135 -172 c16 -15 25 -36 25 -55 0 -19 -9 -40 -25 -55 -15
-16 -36 -25 -55 -25 -19 0 -40 9 -55 25 -16 15 -25 36 -25 55 0 19 9 40 25 55
15 16 36 25 55 25 19 0 40 -9 55 -25z m160 -400 c21 -20 25 -34 25 -80 l0 -55
-240 0 -240 0 0 55 c0 46 4 60 25 80 24 25 26 25 215 25 189 0 191 0 215 -25z" />
        <path d="M105 4615 l-25 -24 0 -1991 0 -1991 25 -24 24 -25 1471 0 1471 0 24
25 25 24 0 551 0 551 -25 24 c-32 33 -78 33 -110 0 l-25 -24 0 -496 0 -495
-1360 0 -1360 0 0 1880 0 1880 960 0 960 0 0 -375 0 -376 25 -24 24 -25 376 0
375 0 0 -175 c0 -173 0 -176 25 -200 32 -33 78 -33 110 0 l25 24 0 233 0 233
-423 422 -422 423 -1073 0 -1073 0 -24 -25z m2480 -515 l260 -260 -263 0 -262
0 0 260 c0 143 1 260 3 260 1 0 119 -117 262 -260z" />
        <path d="M425 4135 l-25 -24 0 -271 0 -271 25 -24 24 -25 751 0 751 0 24 25
25 24 0 271 0 271 -25 24 -24 25 -751 0 -751 0 -24 -25z m1415 -295 l0 -160
-640 0 -640 0 0 160 0 160 640 0 640 0 0 -160z" />
        <path d="M4090 3346 c-329 -70 -574 -316 -634 -636 l-12 -65 -623 -5 -623 -5
-19 -24 c-26 -32 -24 -77 6 -106 l24 -25 376 0 375 0 0 -95 c0 -88 2 -98 25
-120 15 -16 36 -25 55 -25 19 0 40 9 55 25 23 22 25 32 25 120 l0 95 162 -2
162 -3 12 -65 c51 -275 250 -508 512 -601 355 -125 736 4 943 319 88 134 124
258 124 432 0 174 -36 298 -124 432 -113 173 -274 288 -481 345 -78 21 -260
26 -340 9z m285 -161 c216 -45 409 -223 478 -440 31 -99 31 -271 0 -370 -63
-199 -229 -365 -428 -428 -99 -31 -271 -31 -370 0 -163 52 -309 175 -383 323
-95 189 -95 390 -2 576 132 262 417 399 705 339z" />
        <path d="M4160 3027 c-49 -16 -133 -102 -148 -153 -22 -75 -12 -146 29 -205
l19 -27 -48 -13 c-61 -17 -142 -96 -160 -155 -7 -23 -12 -92 -12 -153 0 -105
1 -113 25 -136 l24 -25 351 0 351 0 24 25 c24 23 25 31 25 136 0 137 -11 177
-68 240 -33 36 -57 53 -97 65 l-54 17 18 26 c63 91 53 204 -26 291 -65 72
-158 97 -253 67z m135 -172 c16 -15 25 -36 25 -55 0 -19 -9 -40 -25 -55 -15
-16 -36 -25 -55 -25 -19 0 -40 9 -55 25 -16 15 -25 36 -25 55 0 19 9 40 25 55
15 16 36 25 55 25 19 0 40 -9 55 -25z m160 -400 c21 -20 25 -34 25 -80 l0 -55
-240 0 -240 0 0 55 c0 46 4 60 25 80 24 25 26 25 215 25 189 0 191 0 215 -25z" />
        <path d="M425 3255 c-16 -15 -25 -36 -25 -55 0 -19 9 -40 25 -55 l24 -25 591
0 591 0 24 25 c33 32 33 78 0 110 l-24 25 -591 0 -591 0 -24 -25z" />
        <path d="M425 2855 c-50 -49 -15 -135 55 -135 41 0 80 39 80 80 0 41 -39 80
-80 80 -19 0 -40 -9 -55 -25z" />
        <path d="M665 2855 c-16 -15 -25 -36 -25 -55 0 -19 9 -40 25 -55 l24 -25 271
0 271 0 24 25 c33 32 33 78 0 110 l-24 25 -271 0 -271 0 -24 -25z" />
        <path d="M425 2535 c-16 -15 -25 -36 -25 -55 0 -19 9 -40 25 -55 49 -50 135
-15 135 55 0 41 -39 80 -80 80 -19 0 -40 -9 -55 -25z" />
        <path d="M665 2535 c-16 -15 -25 -36 -25 -55 0 -19 9 -40 25 -55 l24 -25 391
0 391 0 24 25 c16 15 25 36 25 55 0 19 -9 40 -25 55 l-24 25 -391 0 -391 0
-24 -25z" />
        <path d="M425 2135 c-16 -15 -25 -36 -25 -55 0 -19 9 -40 25 -55 l24 -25 591
0 591 0 24 25 c33 32 33 78 0 110 l-24 25 -591 0 -591 0 -24 -25z" />
        <path d="M2185 2135 c-16 -15 -25 -36 -25 -55 0 -19 9 -40 25 -55 l24 -25 398
0 398 0 306 -306 307 -307 -49 -74 c-88 -136 -124 -259 -124 -433 0 -226 75
-408 231 -564 156 -156 338 -231 564 -231 226 0 408 75 564 231 156 156 231
338 231 564 0 226 -75 408 -231 564 -156 156 -338 231 -564 231 -174 0 -298
-36 -432 -124 l-73 -49 -330 329 -331 329 -432 0 -433 0 -24 -25z m2190 -630
c216 -45 409 -223 478 -440 31 -99 31 -271 0 -370 -63 -199 -229 -365 -428
-428 -99 -31 -271 -31 -370 0 -163 52 -309 175 -383 323 -95 189 -95 390 -2
576 132 262 417 399 705 339z" />
        <path d="M4160 1347 c-49 -16 -133 -102 -148 -153 -22 -75 -12 -146 29 -205
l19 -27 -48 -13 c-61 -17 -142 -96 -160 -155 -7 -23 -12 -92 -12 -153 0 -105
1 -113 25 -136 l24 -25 351 0 351 0 24 25 c24 23 25 31 25 136 0 137 -11 177
-68 240 -33 36 -57 53 -97 65 l-54 17 18 26 c63 91 53 204 -26 291 -65 72
-158 97 -253 67z m135 -172 c50 -49 15 -135 -55 -135 -41 0 -80 39 -80 80 0
41 39 80 80 80 19 0 40 -9 55 -25z m160 -400 c21 -20 25 -34 25 -80 l0 -55
-240 0 -240 0 0 55 c0 46 4 60 25 80 24 25 26 25 215 25 189 0 191 0 215 -25z" />
        <path d="M1785 1815 l-25 -24 0 -431 0 -431 25 -24 24 -25 431 0 431 0 24 25
c25 24 25 26 25 215 0 189 0 191 -25 215 -15 16 -36 25 -55 25 -19 0 -40 -9
-55 -25 -24 -23 -25 -29 -25 -160 l0 -135 -320 0 -320 0 0 320 0 320 255 0
256 0 24 25 c16 15 25 36 25 55 0 19 -9 40 -25 55 l-24 25 -311 0 -311 0 -24
-25z" />
        <path d="M2543 1618 l-223 -222 -103 102 c-88 86 -109 102 -136 102 -43 0 -81
-38 -81 -82 0 -28 18 -50 143 -175 128 -129 146 -143 177 -143 32 0 55 21 297
263 237 236 263 266 263 295 0 44 -38 82 -82 82 -28 0 -56 -24 -255 -222z" />
        <path d="M425 1735 c-16 -15 -25 -36 -25 -55 0 -19 9 -40 25 -55 49 -50 135
-15 135 55 0 41 -39 80 -80 80 -19 0 -40 -9 -55 -25z" />
        <path d="M665 1735 c-16 -15 -25 -36 -25 -55 0 -19 9 -40 25 -55 l24 -25 271
0 271 0 24 25 c33 32 33 78 0 110 l-24 25 -271 0 -271 0 -24 -25z" />
        <path d="M425 1415 c-16 -15 -25 -36 -25 -55 0 -19 9 -40 25 -55 49 -50 135
-15 135 55 0 41 -39 80 -80 80 -19 0 -40 -9 -55 -25z" />
        <path d="M665 1415 c-16 -15 -25 -36 -25 -55 0 -19 9 -40 25 -55 l24 -25 391
0 391 0 24 25 c16 15 25 36 25 55 0 19 -9 40 -25 55 l-24 25 -391 0 -391 0
-24 -25z" />
    </g>
</svg>