<?xml version="1.0" standalone="no"?>
<!DOCTYPE svg PUBLIC "-//W3C//DTD SVG 20010904//EN" "http://www.w3.org/TR/2001/REC-SVG-20010904/DTD/svg10.dtd">
<svg version="1.0" xmlns="http://www.w3.org/2000/svg"
    width="512.000000pt" height="512.000000pt" viewBox="0 0 512.000000 512.000000"
    preserveAspectRatio="xMidYMid meet">

    <g transform="translate(0.000000,512.000000) scale(0.100000,-0.100000)"
        fill="#A3ADC2">
        <path d="M1075 5108 c-82 -15 -223 -89 -287 -150 -73 -71 -133 -165 -161 -253
l-22 -70 0 -2075 0 -2075 22 -70 c28 -88 88 -182 161 -253 67 -64 207 -135
296 -151 88 -16 3189 -15 3219 1 47 25 46 17 47 524 l0 481 62 6 c51 5 67 10
85 32 l23 26 0 1992 c-1 1550 -3 1996 -13 2008 -7 9 -22 21 -34 27 -27 15
-3320 15 -3398 0z m205 -1908 l0 -1750 85 0 85 0 0 1750 0 1750 1450 0 1450 0
0 -1880 0 -1880 -1621 0 c-1786 0 -1672 4 -1803 -62 -34 -16 -82 -48 -108 -70
l-48 -39 0 1778 c0 1928 -3 1834 54 1933 39 68 114 140 182 172 71 33 125 45
212 47 l62 1 0 -1750z m2900 -2350 l0 -170 -1495 0 -1496 0 3 -82 3 -83 1493
-3 1492 -2 0 -170 0 -170 -1504 0 c-981 0 -1522 4 -1557 10 -80 15 -168 61
-222 116 -228 229 -132 611 177 709 33 10 358 13 1574 14 l1532 1 0 -170z" />
        <path d="M2820 4350 l0 -170 85 0 85 0 0 170 0 170 -85 0 -85 0 0 -170z" />
        <path d="M1995 4150 l-60 -60 123 -122 122 -123 55 55 c30 30 55 59 55 65 0 6
-53 63 -118 128 l-117 117 -60 -60z" />
        <path d="M3625 4090 l-120 -120 60 -60 60 -60 120 120 120 120 -60 60 -60 60
-120 -120z" />
        <path d="M2725 3991 c-323 -81 -554 -348 -584 -675 -23 -246 61 -462 245 -634
l84 -79 0 -139 c1 -184 12 -260 48 -339 76 -161 232 -253 411 -243 194 11 360
161 391 353 5 33 10 130 10 216 l0 156 43 34 c127 99 224 248 272 419 27 97
26 280 -4 385 -62 223 -225 411 -436 504 -136 60 -338 78 -480 42z m355 -181
c284 -92 462 -386 406 -671 -30 -147 -88 -248 -199 -347 -107 -94 -237 -142
-387 -142 -166 0 -298 57 -420 180 -128 130 -176 256 -168 445 5 95 10 121 38
188 121 291 437 441 730 347z m-180 -1331 c68 0 132 7 183 19 l77 19 0 -63 0
-64 -255 0 -255 0 0 63 0 63 73 -18 c48 -13 107 -19 177 -19z m240 -267 c0
-12 -52 -83 -76 -104 -44 -39 -115 -61 -179 -56 -95 8 -166 53 -206 131 l-19
37 240 0 c132 0 240 -4 240 -8z" fill-opacity="0.6" />
        <path d="M2799 3343 l-70 -67 -54 54 -55 54 -60 -59 -60 -59 82 -84 c130 -132
158 -136 260 -35 l57 57 63 -60 c103 -99 123 -96 258 40 l84 86 -59 60 -59 60
-58 -57 -58 -57 -68 67 c-92 91 -109 91 -203 0z" fill-opacity="0.6" />
        <path d="M1620 3245 l0 -85 170 0 170 0 0 85 0 85 -170 0 -170 0 0 -85z" />
        <path d="M3840 3245 l0 -85 170 0 170 0 0 85 0 85 -170 0 -170 0 0 -85z" />
        <path d="M2055 2520 l-120 -120 60 -60 60 -60 120 120 120 120 -60 60 -60 60
-120 -120z" />
        <path d="M3565 2580 l-60 -60 120 -120 120 -120 60 60 60 60 -120 120 -120
120 -60 -60z" />
    </g>
</svg>