<?xml version="1.0" standalone="no"?>
<!DOCTYPE svg PUBLIC "-//W3C//DTD SVG 20010904//EN" "http://www.w3.org/TR/2001/REC-SVG-20010904/DTD/svg10.dtd">
<svg version="1.0" xmlns="http://www.w3.org/2000/svg"
    width="512.000000pt" height="512.000000pt" viewBox="0 0 512.000000 512.000000"
    preserveAspectRatio="xMidYMid meet">

    <g transform="translate(0.000000,512.000000) scale(0.100000,-0.100000)"
        fill="#A3ADC2">
        <path d="M1054 5098 c-16 -13 -257 -212 -535 -444 -326 -272 -508 -430 -512
-445 -4 -13 -7 -185 -7 -381 l0 -357 24 -28 24 -28 316 -3 316 -3 2 -1680 3
-1681 28 -24 28 -24 365 0 c243 0 372 4 386 11 49 26 48 10 48 1059 l0 980
228 0 229 0 24 26 24 26 3 654 2 654 850 0 850 0 0 -179 0 -179 -30 -12 c-38
-16 -97 -81 -117 -129 -25 -58 -20 -148 10 -208 26 -50 71 -96 114 -116 22
-10 23 -14 23 -149 l0 -138 -564 0 c-310 0 -572 -3 -581 -6 -38 -15 -45 -55
-45 -253 0 -186 0 -190 24 -218 l24 -28 1232 0 1232 0 24 28 c24 28 24 32 24
218 0 198 -7 238 -45 253 -9 3 -271 6 -581 6 l-564 0 0 138 c0 135 1 139 23
149 43 20 88 66 114 116 30 60 35 150 10 208 -20 48 -79 113 -117 129 l-30 12
0 179 0 179 465 0 c508 0 525 2 545 55 6 16 10 172 10 385 l0 359 -24 28 -24
28 -362 3 -363 3 -1528 424 c-841 234 -1537 425 -1548 425 -10 0 -31 -10 -47
-22z m1341 -509 c594 -165 1091 -304 1105 -309 15 -5 -387 -8 -984 -7 l-1010
2 -118 295 c-147 367 -137 334 -102 326 16 -4 515 -142 1109 -307z m-1182 -41
c53 -134 99 -251 103 -260 6 -17 -8 -18 -206 -18 -198 0 -212 1 -206 18 41
109 201 502 206 502 3 0 50 -109 103 -242z m-406 -39 l-93 -234 -195 -3 -194
-2 30 24 c17 13 145 121 285 239 140 118 256 213 258 212 2 -1 -39 -108 -91
-236z m-247 -412 c0 -1 -88 -90 -195 -197 l-195 -195 0 198 0 197 195 0 c107
0 195 -1 195 -3z m490 -192 l-195 -195 -3 182 c-1 100 0 188 2 195 4 10 51 13
198 13 l193 0 -195 -195z m870 187 c0 -4 -85 -93 -190 -197 l-190 -190 0 198
0 197 190 0 c105 0 190 -3 190 -8z m680 0 c0 -4 -85 -93 -190 -197 l-190 -190
0 198 0 197 190 0 c105 0 190 -3 190 -8z m690 5 c0 -1 -88 -90 -195 -197
l-195 -195 0 198 0 197 195 0 c107 0 195 -1 195 -3z m490 -192 l-195 -195 -3
182 c-1 100 0 188 2 195 4 10 51 13 198 13 l193 0 -195 -195z m870 187 c0 -4
-85 -93 -190 -197 l-190 -190 0 198 0 197 190 0 c105 0 190 -3 190 -8z m-3970
-317 l0 -195 -190 0 c-104 0 -190 3 -190 7 0 7 371 383 377 383 2 0 3 -88 3
-195z m686 -182 c-4 -10 -51 -13 -198 -13 l-193 0 195 195 195 195 3 -182 c1
-100 0 -188 -2 -195z m680 0 c-4 -10 -51 -13 -198 -13 l-193 0 195 195 195
195 3 -182 c1 -100 0 -188 -2 -195z m684 182 l0 -195 -190 0 c-104 0 -190 3
-190 7 0 7 371 383 377 383 2 0 3 -88 3 -195z m680 0 l0 -195 -190 0 c-104 0
-190 3 -190 7 0 7 371 383 377 383 2 0 3 -88 3 -195z m686 -182 c-4 -10 -51
-13 -198 -13 l-193 0 195 195 195 195 3 -182 c1 -100 0 -188 -2 -195z m684
182 l0 -195 -197 0 -198 0 195 195 c107 107 196 195 197 195 2 0 3 -88 3 -195z
m-3760 -830 c0 -496 2 -519 48 -544 14 -7 152 -11 416 -11 l396 0 0 -85 0 -85
-515 0 -515 0 0 595 0 595 85 0 85 0 0 -465z m860 40 l0 -425 -112 0 -111 0
66 69 c54 55 67 75 67 100 0 45 -38 81 -86 81 -34 0 -48 -10 -164 -125 l-126
-125 -49 0 -49 0 152 153 c159 160 169 177 141 228 -15 30 -67 49 -99 38 -14
-5 -89 -72 -165 -149 -77 -77 -143 -140 -147 -140 -5 0 -8 162 -8 360 l0 360
345 0 345 0 0 -425z m2015 -110 c44 -43 31 -112 -25 -135 -35 -15 -84 0 -100
31 -30 55 10 129 70 129 19 0 40 -9 55 -25z m1055 -830 l0 -85 -1110 0 -1110
0 0 85 0 85 1110 0 1110 0 0 -85z m-3710 2 c0 -1 -88 -90 -195 -197 l-195
-195 0 198 0 197 195 0 c107 0 195 -1 195 -3z m130 -317 l0 -190 -197 0 -198
0 190 190 c104 105 193 190 197 190 5 0 8 -85 8 -190z m-320 -555 l-195 -195
-3 182 c-1 100 0 188 2 195 4 10 51 13 198 13 l193 0 -195 -195z m316 -312
c-4 -10 -51 -13 -198 -13 l-193 0 195 195 195 195 3 -182 c1 -100 0 -188 -2
-195z m-311 -373 c-104 -104 -193 -190 -197 -190 -5 0 -8 86 -8 190 l0 190
197 0 198 0 -190 -190z m313 -127 l-3 -188 -195 -3 -195 -2 190 190 c104 104
193 190 198 190 4 0 6 -84 5 -187z" />
        <path d="M2602 1183 c-7 -3 -19 -18 -27 -33 -13 -25 -15 -111 -15 -560 l0
-532 29 -29 29 -29 1222 0 1222 0 29 29 29 29 0 532 c0 560 -1 577 -45 594
-20 7 -2454 7 -2473 -1z m2348 -588 l0 -425 -1110 0 -1110 0 0 425 0 425 1110
0 1110 0 0 -425z" fill-opacity="0.6" />
        <path d="M2932 830 c-32 -30 -34 -47 -30 -253 4 -248 -13 -231 235 -235 206
-4 223 -2 253 30 19 20 20 35 20 225 0 273 20 253 -253 253 -190 0 -205 -1
-225 -20z m308 -235 l0 -85 -85 0 -85 0 0 85 0 85 85 0 85 0 0 -85z" fill-opacity="0.5" />
        <path d="M3609 824 c-23 -25 -24 -31 -27 -202 -4 -202 3 -244 48 -267 42 -22
378 -22 420 0 45 23 52 65 48 267 -3 171 -4 177 -27 202 l-24 26 -207 0 -207
0 -24 -26z m319 -226 l-3 -83 -85 0 -85 0 -3 83 -3 82 91 0 91 0 -3 -82z" fill-opacity="0.5" />
        <path d="M4295 825 c-25 -24 -25 -25 -25 -228 0 -190 1 -205 20 -225 30 -32
47 -34 253 -30 248 4 231 -13 235 235 4 206 2 223 -30 253 -20 19 -35 20 -225
20 -203 0 -204 0 -228 -25z m315 -230 l0 -85 -85 0 -85 0 0 85 0 85 85 0 85 0
0 -85z" fill-opacity="0.5" />
    </g>
</svg>