<?xml version="1.0" standalone="no"?>
<!DOCTYPE svg PUBLIC "-//W3C//DTD SVG 20010904//EN" "http://www.w3.org/TR/2001/REC-SVG-20010904/DTD/svg10.dtd">
<svg version="1.0" xmlns="http://www.w3.org/2000/svg"
    width="512.000000pt" height="512.000000pt" viewBox="0 0 512.000000 512.000000"
    preserveAspectRatio="xMidYMid meet">

    <g transform="translate(0.000000,512.000000) scale(0.100000,-0.100000)"
        fill="#000000" stroke="none">
        <path d="M2180 4869 c-336 -34 -698 -164 -978 -353 -911 -612 -1221 -1796
-727 -2771 288 -570 796 -970 1425 -1124 173 -43 285 -55 498 -56 l194 0 24
28 c30 35 31 68 0 103 l-23 28 -140 -3 c-493 -8 -963 155 -1328 461 -375 314
-612 725 -695 1204 -70 403 -10 830 170 1203 191 395 511 721 900 916 561 282
1213 286 1775 11 210 -103 348 -200 518 -366 340 -329 544 -751 597 -1235 13
-120 13 -251 -2 -414 l-12 -134 28 -23 c34 -30 68 -30 101 -2 32 29 43 91 52
293 37 911 -506 1749 -1352 2088 -323 130 -680 180 -1025 146z" />
        <path d="M2193 4550 c-625 -79 -1154 -448 -1433 -1000 -303 -601 -258 -1301
119 -1861 323 -480 849 -775 1436 -806 170 -8 271 2 301 33 32 31 30 69 -4
104 l-29 28 -119 -5 c-489 -22 -991 193 -1317 564 -189 215 -313 462 -383 759
-27 112 -29 132 -28 349 0 201 2 243 22 332 50 228 153 465 279 643 87 122
272 306 393 392 116 83 323 188 448 228 196 63 275 74 522 74 198 1 238 -2
330 -22 302 -66 561 -195 784 -390 411 -359 622 -922 551 -1467 -16 -121 -13
-144 24 -172 23 -18 66 -16 91 5 31 25 48 121 56 307 10 241 -19 446 -98 673
-218 633 -750 1090 -1413 1213 -126 23 -414 34 -532 19z" />
        <path d="M2345 3735 l-25 -24 0 -384 0 -385 -30 -12 c-68 -28 -130 -129 -130
-210 0 -124 116 -240 240 -240 81 0 182 62 210 130 l12 30 145 0 c139 0 145 1
168 25 16 15 25 36 25 55 0 19 -9 40 -25 55 -23 24 -29 25 -168 25 l-145 0
-12 30 c-14 34 -77 95 -109 105 -21 6 -21 8 -21 391 l0 385 -25 24 c-15 16
-36 25 -55 25 -19 0 -40 -9 -55 -25z" />
        <path d="M3145 2135 c-21 -20 -25 -34 -25 -80 l0 -55 -135 0 c-131 0 -137 -1
-160 -25 l-25 -24 0 -831 0 -831 25 -24 24 -25 991 0 991 0 24 25 25 24 0 831
0 831 -25 24 c-23 24 -29 25 -160 25 l-135 0 0 55 c0 67 -29 105 -80 105 -51
0 -80 -38 -80 -105 l0 -55 -240 0 -240 0 0 55 c0 67 -29 105 -80 105 -51 0
-80 -38 -80 -105 l0 -55 -240 0 -240 0 0 55 c0 67 -29 105 -80 105 -19 0 -40
-9 -55 -25z m1575 -375 l0 -80 -880 0 -880 0 0 80 0 80 880 0 880 0 0 -80z
m-185 -745 c33 -32 33 -78 0 -110 l-24 -25 -671 0 -671 0 -24 25 c-16 15 -25
36 -25 55 0 19 9 40 25 55 l24 25 671 0 671 0 24 -25z" />
    </g>
</svg>