<?xml version="1.0" standalone="no"?>
<!DOCTYPE svg PUBLIC "-//W3C//DTD SVG 20010904//EN" "http://www.w3.org/TR/2001/REC-SVG-20010904/DTD/svg10.dtd">
<svg version="1.0" xmlns="http://www.w3.org/2000/svg"
    width="512.000000pt" height="512.000000pt" viewBox="0 0 512.000000 512.000000"
    preserveAspectRatio="xMidYMid meet">

    <g transform="translate(0.000000,512.000000) scale(0.100000,-0.100000)"
        fill="#000000" stroke="none">
        <path d="M1500 5029 c-192 -64 -270 -95 -284 -111 -10 -13 -70 -125 -132 -250
l-114 -228 -106 0 c-72 0 -113 -5 -132 -14 -15 -8 -146 -134 -292 -280 l-265
-266 -3 -145 -3 -145 -37 -1 c-56 0 -105 -21 -119 -49 -10 -20 -13 -382 -13
-1753 l0 -1729 29 -29 29 -29 2502 0 2502 0 29 29 29 29 0 1987 c0 1404 -3
1992 -11 2007 -19 36 -69 48 -203 48 l-125 0 -3 145 c-3 135 -5 146 -26 167
l-23 23 -787 5 -787 5 -672 338 c-370 185 -683 337 -695 336 -13 0 -142 -41
-288 -90z m810 -354 l465 -234 -802 0 c-442 -1 -803 1 -803 4 0 13 146 295
152 295 5 0 63 -28 131 -61 149 -75 165 -80 204 -64 25 11 43 37 102 154 39
78 75 141 79 140 4 0 216 -105 472 -234z m2298 -492 l3 -83 -903 0 c-977 0
-970 0 -1056 -53 -43 -28 -104 -93 -125 -134 -8 -15 -36 -94 -63 -175 l-48
-148 -1038 0 -1038 0 0 79 0 80 230 3 230 3 27 28 28 27 3 230 4 230 1871 -2
1872 -3 3 -82z m-3928 -153 l0 -100 -102 0 -103 0 100 100 c55 55 101 100 102
100 2 0 3 -45 3 -100z m4268 -1982 l-3 -1873 -2385 0 -2385 0 -3 1618 -2 1617
1164 0 1164 0 29 24 c23 19 40 59 88 205 63 193 90 241 149 267 25 11 230 13
1109 14 l1077 0 -2 -1872z" />
        <path d="M4094 3747 c-3 -8 -4 -47 -2 -88 l3 -74 258 -3 257 -2 0 -255 0 -255
85 0 85 0 0 345 0 345 -340 0 c-276 0 -342 -3 -346 -13z" />
        <path d="M2533 3240 c-36 -15 -1061 -788 -1072 -809 -8 -13 -11 -265 -11 -774
l0 -755 31 -26 31 -26 1048 0 1048 0 31 26 31 26 0 755 c0 509 -3 761 -11 774
-20 38 -1081 826 -1102 818 -1 0 -12 -4 -24 -9z m501 -551 l456 -341 0 -100
c0 -79 -3 -98 -12 -91 -160 125 -870 649 -890 657 -20 7 -36 7 -56 0 -20 -8
-730 -532 -889 -657 -10 -7 -13 12 -13 91 l0 100 462 346 c254 191 468 344
474 342 7 -3 218 -159 468 -347z m-2 -420 l468 -351 0 -444 0 -444 -254 0
-254 0 -5 338 c-3 258 -7 346 -18 377 -75 209 -271 331 -476 296 -160 -27
-284 -135 -342 -296 -11 -31 -15 -119 -18 -377 l-5 -338 -254 0 -254 0 0 444
0 444 468 351 c257 193 469 351 471 351 2 0 215 -158 473 -351z m-348 -427
c53 -29 97 -81 118 -140 10 -28 13 -120 13 -357 l0 -320 -255 0 -255 0 -3 289
c-3 317 4 377 46 446 29 47 111 105 161 113 50 9 126 -5 175 -31z" />
        <path d="M1450 600 l0 -90 1110 0 1110 0 0 90 0 90 -1110 0 -1110 0 0 -90z" />
    </g>
</svg>