<?xml version="1.0" standalone="no"?>
<!DOCTYPE svg PUBLIC "-//W3C//DTD SVG 20010904//EN" "http://www.w3.org/TR/2001/REC-SVG-20010904/DTD/svg10.dtd">
<svg version="1.0" xmlns="http://www.w3.org/2000/svg"
    width="512.000000pt" height="512.000000pt" viewBox="0 0 512.000000 512.000000"
    preserveAspectRatio="xMidYMid meet">

    <g transform="translate(0.000000,512.000000) scale(0.100000,-0.100000)"
        fill="#000000" stroke="none">
        <path d="M2353 4848 c-17 -18 -23 -42 -29 -108 -8 -98 -17 -130 -39 -130 -8 0
-56 -18 -107 -40 -74 -32 -95 -37 -107 -27 -9 6 -44 35 -79 64 -97 81 -99 80
-259 -80 -104 -103 -133 -139 -133 -159 0 -18 22 -54 69 -110 l69 -84 -26 -49
c-14 -28 -36 -77 -48 -110 l-22 -60 -73 -8 c-122 -13 -139 -17 -160 -38 -17
-17 -19 -34 -19 -204 0 -181 1 -187 23 -209 19 -19 39 -25 103 -30 132 -11
128 -10 149 -74 9 -31 28 -78 41 -104 13 -26 24 -52 24 -57 0 -6 -22 -36 -48
-68 -70 -84 -85 -110 -79 -135 9 -33 269 -288 294 -288 22 0 46 16 134 91 l55
48 58 -29 c32 -17 82 -37 111 -46 60 -19 58 -15 71 -157 10 -117 11 -117 240
-117 235 0 220 -12 240 191 6 64 7 67 36 73 16 3 67 23 112 44 l82 39 84 -69
c113 -93 109 -94 273 70 156 158 156 156 62 268 -36 43 -65 82 -65 86 0 5 13
34 29 66 16 31 35 76 42 100 7 24 20 47 28 51 9 5 56 12 105 16 74 6 93 11
112 31 23 23 24 27 24 209 0 211 -3 219 -82 229 -24 3 -72 9 -107 13 l-63 8
-22 60 c-12 33 -34 82 -48 110 l-26 49 69 84 c46 56 69 92 69 109 0 20 -31 57
-132 160 -159 161 -158 160 -262 75 -39 -32 -76 -61 -83 -65 -7 -4 -34 3 -60
16 -26 14 -76 35 -110 47 l-62 22 -6 67 c-18 191 -4 181 -243 181 -183 0 -189
-1 -209 -22z m311 -180 c16 -155 20 -161 113 -184 32 -9 104 -38 160 -66 118
-59 114 -60 211 21 34 28 65 51 69 51 5 0 37 -29 72 -64 l64 -65 -62 -77 c-33
-42 -61 -86 -61 -98 0 -11 22 -65 50 -119 27 -54 54 -123 61 -153 16 -70 36
-91 96 -98 26 -3 72 -8 101 -12 l52 -6 0 -98 0 -98 -95 -7 c-66 -5 -101 -12
-114 -23 -10 -10 -29 -51 -41 -92 -12 -41 -41 -112 -66 -157 -24 -46 -44 -92
-44 -103 0 -10 29 -55 64 -98 l64 -79 -68 -68 -69 -68 -75 61 c-49 41 -83 62
-101 62 -14 0 -58 -18 -98 -39 -40 -22 -112 -52 -160 -66 -56 -18 -91 -34 -98
-46 -8 -16 -29 -154 -29 -196 0 -10 -26 -13 -98 -13 l-99 0 -10 99 c-5 55 -15
107 -22 115 -8 9 -45 25 -85 37 -39 12 -109 41 -157 65 -47 24 -97 44 -111 44
-17 0 -51 -20 -98 -60 -39 -33 -75 -60 -78 -60 -10 0 -132 123 -132 133 0 4
27 40 60 79 71 85 74 104 26 184 -19 31 -49 102 -67 157 -21 64 -40 104 -53
113 -12 7 -63 16 -113 20 l-93 7 0 97 0 98 48 6 c26 3 71 8 100 12 65 7 85 27
101 98 7 30 34 99 61 153 28 54 50 108 50 119 0 12 -28 56 -61 98 l-62 77 68
69 68 68 79 -64 c43 -35 88 -64 100 -64 11 0 43 13 69 30 54 33 148 74 194 84
90 20 100 34 110 159 l7 87 98 0 98 0 6 -62z" />
        <path d="M2414 4386 c-201 -46 -386 -189 -473 -367 -57 -118 -75 -193 -75
-319 1 -122 19 -202 70 -306 128 -262 418 -419 706 -383 169 21 288 80 414
205 68 67 89 96 127 175 59 121 82 230 74 354 -17 286 -209 532 -484 622 -96
32 -264 40 -359 19z m281 -141 c247 -65 424 -290 425 -541 0 -76 -31 -200 -67
-267 -43 -80 -143 -179 -221 -220 -97 -51 -172 -70 -273 -70 -267 1 -489 185
-545 453 -58 279 132 576 412 644 79 19 197 19 269 1z" />
        <path d="M2800 3933 c-8 -4 -82 -71 -163 -150 l-149 -143 -81 75 c-89 81 -120
92 -157 55 -42 -42 -29 -68 93 -188 88 -87 120 -112 141 -112 21 0 66 37 211
176 101 96 186 182 189 191 21 54 -33 115 -84 96z" />
        <path d="M3475 2170 c-65 -10 -100 -25 -277 -121 l-148 -81 -238 4 c-261 4
-244 1 -428 82 -137 61 -220 78 -374 78 -165 0 -249 -19 -395 -91 -74 -37
-127 -73 -205 -140 -107 -93 -196 -150 -209 -135 -4 5 -23 60 -41 122 -23 76
-40 118 -54 128 -17 11 -79 14 -341 14 -309 0 -322 -1 -343 -20 -14 -14 -22
-33 -22 -55 0 -30 183 -1555 196 -1633 3 -18 14 -42 25 -53 18 -18 37 -19 490
-19 301 0 477 4 489 10 46 24 45 40 -20 252 -34 110 -60 202 -58 203 26 26
378 237 407 245 36 10 93 1 484 -71 l442 -81 140 5 c112 4 157 10 228 31 145
43 51 -17 1235 796 259 178 272 190 258 243 -10 40 -82 112 -148 147 -55 29
-75 35 -151 38 -72 4 -98 1 -148 -17 l-60 -22 -38 31 c-98 77 -225 97 -327 51
l-52 -22 -53 29 c-89 49 -171 65 -264 52z m136 -146 c16 -3 29 -10 27 -15 -2
-6 -48 -34 -103 -63 l-100 -54 -59 30 c-65 33 -66 31 18 74 77 40 123 46 217
28z m-1403 -54 c39 -11 111 -38 158 -60 160 -74 152 -73 539 -79 l350 -6 57
-28 c31 -15 71 -44 88 -64 31 -35 78 -119 69 -126 -2 -2 -110 1 -239 6 -246
11 -476 1 -519 -23 -29 -15 -41 -48 -29 -83 16 -44 34 -48 173 -35 99 9 191 9
422 -1 l296 -12 23 22 c13 12 24 32 24 44 0 19 53 51 348 210 327 177 351 189
410 193 65 5 138 -15 161 -42 9 -10 -125 -106 -602 -434 -338 -232 -636 -431
-663 -442 -87 -38 -202 -60 -309 -60 -115 0 -89 -4 -595 89 -400 74 -423 76
-512 45 -21 -7 -113 -61 -204 -119 -91 -58 -169 -105 -173 -105 -4 0 -59 168
-121 373 -62 204 -115 377 -116 382 -2 6 26 23 61 39 38 17 97 57 141 95 188
163 302 220 484 244 64 9 206 -3 278 -23z m1828 8 c16 -7 28 -18 28 -23 -1 -6
-68 -46 -150 -90 -82 -44 -188 -102 -235 -128 l-87 -47 -26 49 -26 50 73 39
c171 94 293 159 307 165 22 9 83 1 116 -15z m-2797 -826 c123 -405 226 -743
229 -750 3 -9 -74 -12 -366 -12 l-371 0 -6 33 c-8 49 -175 1427 -175 1448 0
18 11 19 233 19 l232 0 224 -738z" />
        <path d="M982 769 c-116 -57 -135 -222 -36 -308 139 -123 354 14 304 194 -31
112 -160 167 -268 114z m128 -138 c16 -31 12 -49 -15 -67 -23 -15 -27 -15 -50
0 -27 18 -33 54 -13 74 19 19 66 15 78 -7z" />
    </g>
</svg>