<?xml version="1.0" standalone="no"?>
<!DOCTYPE svg PUBLIC "-//W3C//DTD SVG 20010904//EN" "http://www.w3.org/TR/2001/REC-SVG-20010904/DTD/svg10.dtd">
<svg version="1.0" xmlns="http://www.w3.org/2000/svg"
    width="512.000000pt" height="512.000000pt" viewBox="0 0 512.000000 512.000000"
    preserveAspectRatio="xMidYMid meet">

    <g transform="translate(0.000000,512.000000) scale(0.100000,-0.100000)"
        fill="#000000" stroke="none">
        <path d="M3907 5093 c-35 -9 -47 -55 -47 -187 0 -117 2 -127 23 -152 31 -35
82 -38 109 -5 16 20 18 42 18 166 0 143 0 144 -26 164 -26 21 -41 23 -77 14z" />
        <path d="M3200 4860 c-12 -12 -20 -33 -20 -51 0 -27 16 -48 97 -130 87 -90
100 -99 133 -99 45 0 73 28 73 71 0 25 -17 47 -99 130 -85 85 -103 99 -131 99
-20 0 -41 -8 -53 -20z" />
        <path d="M4489 4783 c-78 -78 -99 -105 -99 -127 0 -62 52 -96 108 -69 43 21
189 174 198 207 10 41 -22 80 -71 84 -36 3 -42 -2 -136 -95z" />
        <path d="M3772 4461 c-92 -23 -219 -86 -294 -146 -105 -84 -200 -234 -234
-369 l-16 -66 -337 0 c-332 0 -336 0 -376 -23 l-41 -23 -43 23 -44 23 -985 0
c-970 0 -985 0 -1017 -20 -40 -25 -65 -74 -65 -129 l0 -41 -85 0 c-92 0 -139
-16 -182 -62 -55 -59 -53 -12 -53 -1122 0 -985 1 -1025 19 -1047 38 -48 131
-18 131 42 0 17 8 19 85 19 l85 0 0 -439 0 -438 23 -34 c49 -73 -19 -69 1053
-69 l961 0 21 -23 c20 -21 22 -34 22 -135 0 -62 -1 -112 -2 -112 -2 0 -28 10
-58 23 l-55 22 -1054 3 c-744 2 -1059 6 -1068 14 -10 8 -13 95 -13 428 0 407
-1 418 -21 444 -28 36 -80 36 -108 0 -21 -26 -21 -37 -21 -451 0 -360 2 -429
16 -461 16 -39 56 -86 89 -105 15 -9 302 -13 1090 -17 1205 -6 1099 2 1171
-84 70 -84 137 -87 201 -10 21 25 54 55 73 67 l35 22 1070 5 c1158 5 1099 2
1146 56 52 59 49 -48 49 1707 l0 1623 -29 46 c-39 62 -95 88 -187 88 l-69 0
-1 88 c-3 139 -70 343 -123 372 -32 16 -66 12 -89 -13 -29 -31 -28 -52 7 -128
39 -88 55 -160 54 -254 0 -144 -48 -259 -161 -392 -88 -103 -103 -124 -142
-200 l-31 -63 -232 0 -232 0 -37 73 c-21 40 -60 99 -88 132 -161 192 -199 269
-207 420 -10 174 43 312 167 435 116 117 238 170 392 170 87 0 156 -15 242
-52 67 -29 71 -30 102 -14 71 33 54 104 -36 148 -132 66 -318 85 -468 49z
m-1393 -757 l21 -27 0 -1499 c0 -1364 -1 -1500 -16 -1494 -9 3 -443 6 -965 6
l-949 0 0 415 0 415 568 0 567 0 170 120 c94 66 182 131 197 145 51 48 49 131
-5 182 -17 17 -107 83 -198 147 l-166 116 -566 0 -567 0 0 750 0 750 944 0
945 0 20 -26z m846 -31 c6 -50 37 -160 60 -215 7 -17 -6 -18 -182 -18 -211 0
-246 -7 -269 -52 -18 -36 -12 -70 18 -98 21 -19 34 -20 294 -20 l272 0 37 -45
c38 -47 105 -153 105 -167 0 -4 -153 -8 -341 -8 -199 0 -348 -4 -358 -10 -10
-5 -24 -23 -31 -40 -15 -35 0 -84 31 -100 10 -6 163 -10 367 -10 l350 0 4 -92
c3 -51 8 -101 13 -110 7 -17 -14 -18 -355 -18 l-362 0 -30 -30 c-25 -26 -29
-36 -24 -63 4 -18 16 -41 27 -52 19 -19 33 -20 442 -20 l422 0 70 -35 c61 -30
80 -34 145 -35 133 0 244 60 308 165 46 77 54 114 61 290 l6 155 38 67 c21 37
60 91 87 120 l49 53 -2 -1295 -2 -1295 -963 -5 -962 -5 0 1504 c0 1386 1 1506
17 1523 15 17 39 18 333 18 l318 0 7 -57z m-2905 -788 l0 -655 -85 0 -85 0 0
643 c0 487 3 646 12 655 7 7 42 12 85 12 l73 0 0 -655z m4459 641 c8 -10 10
-437 9 -1607 l-3 -1594 -1065 -5 -1065 -5 -49 -23 c-27 -12 -50 -22 -52 -22
-2 0 -4 53 -4 119 0 98 3 121 17 132 13 12 185 15 989 19 963 5 973 5 1000 26
15 11 37 33 48 48 21 27 21 31 24 1477 l2 1449 69 0 c45 0 72 -5 80 -14z
m-634 -681 c-1 -84 -5 -108 -24 -149 -60 -122 -234 -151 -329 -53 -49 51 -62
93 -62 207 l0 100 208 -2 207 -3 0 -100z m-3695 -970 l0 -205 -150 0 -150 0 0
205 0 205 150 0 150 0 0 -205z m1050 0 l0 -205 -450 0 -450 0 0 205 0 205 450
0 450 0 0 -205z m258 63 c45 -33 82 -61 82 -63 0 -4 -152 -114 -177 -129 -10
-6 -13 23 -13 129 0 106 3 135 13 129 6 -5 49 -34 95 -66z" />
        <path d="M794 3426 c-20 -9 -35 -25 -42 -45 -13 -36 -8 -56 21 -88 l20 -23
639 0 639 0 24 25 c32 31 32 75 1 112 l-24 28 -624 2 c-510 2 -629 0 -654 -11z" />
        <path d="M773 3028 c-11 -13 -23 -31 -26 -40 -9 -24 11 -76 33 -88 12 -6 260
-10 659 -10 l640 0 20 26 c28 36 27 79 -4 109 l-24 25 -639 0 -639 0 -20 -22z" />
        <path d="M782 2654 c-53 -37 -44 -118 14 -143 22 -8 187 -11 652 -9 l624 3 24
28 c31 37 31 81 -1 112 l-24 25 -633 0 c-565 0 -636 -2 -656 -16z" />
        <path d="M774 1216 c-21 -18 -28 -32 -28 -61 0 -29 7 -43 28 -61 l27 -24 625
0 c642 0 652 1 681 39 16 21 16 71 0 92 -29 38 -39 39 -681 39 l-625 0 -27
-24z" />
        <path d="M2854 2266 c-39 -33 -39 -89 0 -122 l27 -24 630 0 631 0 29 29 c42
43 34 106 -18 130 -17 8 -212 11 -648 11 l-624 0 -27 -24z" />
        <path d="M2919 1887 c-70 -47 -70 -42 -67 -519 3 -413 4 -427 24 -454 11 -15
33 -37 48 -48 27 -21 38 -21 584 -21 523 0 559 1 587 18 17 10 39 31 50 45 19
26 20 45 23 462 2 420 2 436 -18 468 -11 18 -34 41 -52 52 -32 19 -52 20 -589
20 l-556 0 -34 -23z m1101 -512 l0 -385 -510 0 -510 0 0 385 0 385 510 0 510
0 0 -385z" />
        <path d="M2780 4260 c-30 -30 -27 -83 6 -109 24 -19 40 -21 161 -21 129 0 135
1 158 25 14 13 25 36 25 50 0 14 -11 37 -25 50 -23 24 -29 25 -165 25 -127 0
-142 -2 -160 -20z" />
        <path d="M4770 4260 c-30 -30 -27 -83 6 -109 24 -19 40 -21 161 -21 129 0 135
1 158 25 14 13 25 36 25 50 0 14 -11 37 -25 50 -23 24 -29 25 -165 25 -127 0
-142 -2 -160 -20z" />
    </g>
</svg>