<?xml version="1.0" standalone="no"?>
<!DOCTYPE svg PUBLIC "-//W3C//DTD SVG 20010904//EN" "http://www.w3.org/TR/2001/REC-SVG-20010904/DTD/svg10.dtd">
<svg version="1.0" xmlns="http://www.w3.org/2000/svg"
    width="512.000000pt" height="512.000000pt" viewBox="0 0 512.000000 512.000000"
    preserveAspectRatio="xMidYMid meet">

    <g transform="translate(0.000000,512.000000) scale(0.100000,-0.100000)"
        fill="#000000" stroke="none">
        <path d="M2492 5098 c-11 -13 -73 -108 -136 -212 -130 -213 -137 -236 -87
-287 23 -23 39 -29 70 -29 l41 0 0 -342 c0 -205 4 -358 10 -380 21 -76 87
-128 164 -130 62 -1 111 18 145 58 41 46 46 69 46 206 0 108 -2 119 -22 139
-30 30 -80 30 -105 0 -15 -19 -18 -41 -18 -126 0 -81 -3 -107 -16 -119 -19
-20 -19 -20 -38 0 -14 13 -16 64 -16 402 0 430 1 425 -65 438 l-34 6 67 109
c36 60 67 107 68 106 1 -1 31 -50 67 -108 l65 -107 -31 -6 c-63 -13 -67 -24
-67 -183 0 -130 2 -145 20 -163 25 -25 71 -26 101 -1 21 17 24 29 27 110 l4
91 40 0 c30 0 46 7 69 29 50 50 43 73 -87 286 -64 105 -125 200 -137 213 -16
17 -31 22 -72 22 -41 0 -56 -5 -73 -22z" />
        <path d="M929 4451 c-20 -21 -29 -39 -29 -63 0 -18 23 -131 52 -251 59 -249
69 -267 139 -267 30 0 52 8 77 26 l34 27 251 -251 c139 -138 265 -256 280
-261 91 -35 203 14 236 102 14 36 14 98 1 134 -6 15 -124 141 -262 279 l-251
252 27 34 c18 25 26 47 26 77 0 70 -18 80 -267 139 -120 29 -233 52 -251 52
-24 0 -42 -9 -63 -29z m271 -167 l107 -25 -19 -39 c-16 -32 -17 -43 -8 -62 7
-13 134 -145 282 -294 271 -272 295 -303 244 -312 -14 -3 -94 71 -290 266
-149 148 -281 275 -294 282 -19 9 -30 8 -62 -8 l-39 -19 -25 107 c-30 121 -30
130 -14 130 6 0 60 -11 118 -26z" />
        <path d="M3875 4426 c-115 -28 -216 -55 -224 -60 -20 -13 -41 -70 -34 -97 3
-13 17 -39 31 -58 l25 -33 -251 -252 c-138 -138 -256 -264 -262 -279 -34 -92
15 -203 103 -236 41 -16 103 -13 140 5 18 9 143 126 278 261 l247 246 35 -27
c65 -49 136 -33 162 38 19 53 105 416 105 445 0 56 -47 101 -105 100 -22 0
-134 -24 -250 -53z m185 -123 c0 -5 -12 -58 -26 -120 l-27 -112 -36 20 c-20
11 -44 16 -56 13 -11 -3 -144 -130 -296 -281 -277 -276 -308 -300 -317 -249
-3 14 71 94 267 290 148 149 274 283 280 297 7 21 5 35 -9 62 l-19 35 97 25
c102 26 142 32 142 20z" />
        <path d="M2431 3605 c-297 -54 -537 -278 -611 -568 -14 -55 -21 -129 -26 -245
-5 -154 -8 -171 -32 -222 -71 -146 6 -325 161 -374 l54 -17 17 -62 c26 -93 73
-174 149 -254 l68 -71 -3 -67 -3 -67 -366 -143 c-201 -78 -388 -155 -415 -171
-68 -39 -163 -138 -201 -209 -67 -127 -68 -138 -68 -575 l0 -395 25 -45 c14
-24 45 -58 68 -75 l44 -30 564 -3 564 -3 25 25 c32 32 32 70 0 101 l-24 25
-315 0 -315 0 -3 314 c-3 292 -4 315 -22 335 -26 29 -76 28 -104 -2 -22 -23
-22 -29 -22 -335 l0 -312 -148 0 c-104 0 -153 4 -166 13 -16 11 -17 42 -14
407 l3 395 28 59 c33 72 82 133 134 169 21 15 171 78 333 141 l294 114 67 -63
c105 -98 263 -165 394 -165 131 0 285 65 393 165 l71 66 288 -111 c181 -69
308 -125 343 -148 64 -44 122 -116 152 -192 21 -53 23 -71 26 -432 3 -370 3
-377 -17 -397 -19 -19 -33 -21 -171 -21 l-150 0 0 315 c0 302 -1 316 -20 335
-22 22 -60 26 -90 10 -35 -19 -40 -64 -40 -366 l0 -294 -314 0 c-292 0 -315
-1 -337 -19 -32 -26 -32 -86 0 -112 22 -18 51 -19 575 -19 620 0 600 -2 664
76 51 61 54 99 50 514 -4 313 -7 383 -21 425 -42 129 -138 253 -244 315 -33
19 -222 98 -421 175 l-362 140 0 79 0 78 58 62 c65 70 115 157 136 239 18 71
22 77 47 77 32 0 114 47 144 82 76 89 89 205 37 311 -30 61 -31 65 -35 242 -6
222 -28 302 -122 445 -118 177 -302 299 -510 335 -104 18 -164 18 -264 0z
m331 -172 c104 -36 179 -85 257 -169 67 -71 132 -193 150 -282 13 -61 15 -262
3 -262 -5 0 -16 17 -25 39 -10 21 -64 87 -121 146 l-103 108 -54 -5 c-40 -4
-72 -16 -124 -47 -160 -95 -322 -140 -536 -150 -138 -6 -159 -10 -187 -29 -17
-13 -34 -31 -37 -42 -4 -11 -13 -20 -21 -20 -20 0 -19 201 2 283 36 139 138
282 261 363 158 105 354 129 535 67z m247 -943 c1 -118 -4 -243 -9 -278 -20
-143 -117 -273 -247 -335 -58 -27 -82 -32 -165 -35 -80 -4 -107 0 -163 18
-125 42 -226 139 -276 268 -21 53 -23 73 -23 292 l-1 235 120 6 c190 10 353
55 520 143 l100 53 72 -76 72 -76 0 -215z m204 42 c23 -25 36 -72 30 -106 -6
-28 -54 -86 -72 -86 -7 0 -11 38 -11 115 0 107 1 115 18 106 9 -5 25 -18 35
-29z m-1243 -82 c0 -60 -4 -110 -9 -110 -22 0 -62 45 -71 80 -8 30 -7 47 4 73
13 31 49 67 68 67 5 0 8 -49 8 -110z m450 -745 c72 -19 233 -19 296 0 27 8 54
15 60 15 7 0 13 -26 16 -66 4 -62 7 -69 42 -101 l38 -35 -34 -30 c-48 -42
-146 -87 -214 -98 -107 -17 -233 18 -324 91 l-40 32 39 33 c39 33 61 88 61
148 0 14 1 26 3 26 1 0 27 -7 57 -15z"/>
        <path d="M494 3025 c-210 -128 -244 -157 -244 -210 0 -52 33 -80 245 -209 213
-130 236 -137 286 -87 22 23 29 39 29 70 l0 40 363 3 c314 3 366 5 392 20 66
36 97 91 96 170 0 80 -51 146 -129 168 -22 6 -175 10 -379 10 l-343 0 0 41 c0
31 -6 47 -29 70 -51 50 -74 43 -287 -86z m198 -157 c18 -17 53 -18 408 -18
340 0 391 -2 404 -16 20 -19 20 -19 0 -38 -13 -14 -64 -16 -408 -16 -436 0
-418 3 -432 -67 l-6 -31 -108 66 c-60 37 -108 68 -107 69 1 1 49 30 107 66
l105 64 8 -31 c4 -17 17 -39 29 -48z" />
        <path d="M4349 3111 c-23 -23 -29 -39 -29 -70 l0 -41 -342 0 c-205 0 -358 -4
-380 -10 -79 -22 -131 -91 -131 -175 0 -55 18 -98 55 -131 53 -49 53 -49 436
-52 l362 -3 0 -40 c0 -31 7 -47 29 -70 50 -49 71 -43 291 91 108 66 205 129
216 141 29 32 26 102 -6 133 -14 13 -110 77 -215 140 -213 130 -235 137 -286
87z m323 -297 c-1 -5 -47 -37 -101 -71 l-99 -61 -6 34 c-13 65 -8 64 -438 64
-338 0 -389 2 -402 16 -12 12 -13 20 -6 35 10 18 26 19 405 19 384 0 396 1
415 20 11 11 23 34 26 49 l6 29 102 -62 c55 -35 100 -67 98 -72z" />
    </g>
</svg>