<?xml version="1.0" standalone="no"?>
<!DOCTYPE svg PUBLIC "-//W3C//DTD SVG 20010904//EN" "http://www.w3.org/TR/2001/REC-SVG-20010904/DTD/svg10.dtd">
<svg version="1.0" xmlns="http://www.w3.org/2000/svg"
    width="512.000000pt" height="512.000000pt" viewBox="0 0 512.000000 512.000000"
    preserveAspectRatio="xMidYMid meet">

    <g transform="translate(0.000000,512.000000) scale(0.100000,-0.100000)"
        fill="#000000" stroke="none">
        <path d="M1695 5101 c-90 -41 -115 -98 -115 -255 l0 -114 -287 -4 c-238 -4
-298 -8 -342 -22 -174 -56 -302 -192 -345 -367 -14 -59 -16 -252 -16 -1980 0
-1664 2 -1922 15 -1972 48 -185 187 -324 372 -372 49 -13 264 -15 1582 -15
1369 0 1531 2 1590 16 175 43 307 167 367 344 18 53 19 126 19 1995 0 2112 4
1976 -56 2097 -37 73 -124 167 -188 201 -122 67 -140 70 -453 75 l-286 4 -4
127 c-3 112 -6 130 -27 164 -13 21 -42 50 -64 65 l-41 27 -840 2 c-801 3 -843
2 -881 -16z m1455 -576 l0 -195 -585 0 -585 0 0 195 0 195 585 0 585 0 0 -195z
m-1570 -331 c5 -121 7 -133 33 -172 15 -23 46 -52 70 -64 l42 -23 805 -3 c443
-2 824 0 846 3 62 9 121 52 149 109 22 45 25 62 25 169 l0 118 258 -3 c291 -3
302 -6 321 -75 8 -26 11 -636 11 -1898 0 -1751 -1 -1862 -18 -1895 -9 -19 -28
-40 -42 -47 -20 -10 -339 -12 -1527 -10 l-1503 2 -27 28 -28 27 0 1904 c0
1863 0 1904 19 1925 11 12 33 25 50 30 17 5 139 9 271 8 l240 -2 5 -131z" />
        <path d="M3270 2824 c-22 -9 -208 -187 -502 -482 l-468 -467 -202 202 c-112
110 -218 208 -237 218 -49 25 -147 17 -193 -14 -52 -36 -81 -84 -86 -146 -8
-99 -3 -106 297 -408 152 -153 294 -289 316 -302 53 -31 102 -39 156 -25 40
10 99 66 603 568 377 377 564 570 577 597 46 100 0 216 -103 260 -47 19 -112
19 -158 -1z" />
    </g>
</svg>