<?xml version="1.0" standalone="no"?>
<!DOCTYPE svg PUBLIC "-//W3C//DTD SVG 20010904//EN" "http://www.w3.org/TR/2001/REC-SVG-20010904/DTD/svg10.dtd">
<svg version="1.0" xmlns="http://www.w3.org/2000/svg"
    width="512.000000pt" height="512.000000pt" viewBox="0 0 512.000000 512.000000"
    preserveAspectRatio="xMidYMid meet">

    <g transform="translate(0.000000,512.000000) scale(0.100000,-0.100000)"
        fill="#000000" stroke="none">
        <path d="M1714 5100 c-188 -49 -345 -146 -467 -289 -284 -332 -256 -811 64
-1117 80 -76 137 -114 241 -164 135 -64 219 -83 388 -84 154 -1 229 12 354 61
145 56 312 190 399 317 123 181 172 405 133 609 -62 320 -315 582 -644 666
-110 29 -362 29 -468 1z" />
        <path d="M1670 3272 c0 -87 3 -114 16 -126 13 -14 51 -16 264 -16 213 0 251 2
264 16 13 12 16 39 16 125 0 100 -2 110 -17 105 -45 -14 -215 -36 -273 -36
-59 1 -172 17 -242 35 l-28 7 0 -110z" />
        <path d="M1132 3021 c-21 -13 378 -377 427 -391 91 -25 141 -7 240 86 l80 75
-134 120 -133 119 -234 0 c-128 0 -239 -4 -246 -9z" />
        <path d="M1858 2938 l92 -93 92 93 93 92 -185 0 -185 0 93 -92z" />
        <path d="M2150 2910 l-125 -120 78 -75 c102 -97 164 -116 253 -76 59 27 430
371 412 382 -7 5 -121 9 -253 8 l-240 0 -125 -119z" />
        <path d="M910 2975 c-19 -7 -64 -27 -100 -45 -264 -133 -454 -371 -533 -665
-20 -76 -21 -107 -24 -639 -4 -516 -3 -560 13 -577 17 -18 49 -19 988 -19
l971 0 14 30 c7 17 23 37 35 45 11 7 98 38 191 69 152 49 170 57 170 76 0 20
-18 28 -165 76 -91 29 -173 56 -182 59 -34 12 -62 66 -62 120 0 48 12 72 209
415 189 329 214 367 250 387 84 47 127 29 290 -123 164 -152 167 -151 120 66
-42 191 -43 223 -9 274 39 57 71 66 239 66 l146 0 -33 47 c-50 71 -158 174
-239 228 -82 55 -248 130 -260 118 -4 -4 -220 -402 -479 -883 -260 -481 -478
-882 -486 -889 -10 -11 -20 -13 -40 -5 -22 7 -105 155 -501 889 -261 484 -478
883 -481 886 -4 4 -23 1 -42 -6z" />
        <path d="M1131 2863 c16 -45 485 -891 490 -885 6 5 179 583 179 596 0 1 -24
-9 -52 -23 -43 -21 -67 -26 -128 -26 -110 1 -140 18 -329 196 -90 84 -162 148
-160 142z" />
        <path d="M2596 2718 c-87 -82 -177 -158 -199 -170 -82 -41 -196 -34 -272 18
-31 20 -36 22 -30 7 4 -10 46 -146 92 -303 47 -157 88 -288 92 -292 4 -4 114
193 244 438 131 246 236 448 235 449 -2 1 -74 -65 -162 -147z" />
        <path d="M1922 2600 l-21 -51 21 -44 c12 -25 25 -45 28 -45 3 0 16 20 28 45
l21 44 -21 51 c-11 27 -24 50 -28 50 -4 0 -17 -23 -28 -50z" />
        <path d="M3176 2474 c-9 -8 -16 -22 -16 -31 0 -12 48 -232 85 -390 4 -18 -2
-25 -42 -43 -26 -11 -62 -32 -80 -46 l-34 -25 -154 145 c-112 107 -161 146
-179 146 -21 0 -47 -40 -230 -358 -113 -198 -206 -366 -206 -374 0 -25 18 -34
160 -78 74 -22 163 -50 198 -61 l62 -21 0 -88 0 -88 -62 -21 c-35 -11 -124
-39 -198 -61 -142 -44 -160 -53 -160 -78 0 -8 93 -176 206 -374 183 -318 209
-358 230 -358 18 0 67 39 179 146 l154 145 34 -25 c18 -14 54 -35 81 -46 34
-16 46 -26 42 -38 -2 -9 -24 -102 -47 -205 -34 -153 -40 -193 -31 -213 l12
-24 408 0 c400 0 409 0 428 21 18 20 17 24 -25 212 -23 106 -44 200 -47 209
-4 12 8 22 42 38 27 11 63 32 82 46 l34 26 147 -146 c165 -163 181 -171 224
-114 13 18 108 180 211 361 178 309 187 329 173 350 -14 22 -41 32 -297 111
l-115 36 0 90 0 90 115 36 c256 79 283 89 297 111 14 21 5 41 -173 350 -103
181 -198 343 -211 361 -43 57 -59 49 -224 -114 l-147 -146 -34 26 c-19 14 -55
35 -82 46 -34 16 -46 26 -42 38 3 9 24 103 47 209 42 188 43 192 25 212 -19
21 -28 21 -422 21 -353 0 -405 -2 -418 -16z m506 -795 c227 -48 379 -272 340
-499 -32 -189 -173 -330 -362 -362 -135 -23 -266 19 -371 118 -177 170 -184
435 -14 613 110 116 255 162 407 130z" />
        <path d="M1848 2395 c-3 -6 -42 -133 -87 -283 l-81 -273 132 -239 c73 -132
135 -240 138 -240 3 0 63 108 133 240 l127 240 -81 272 c-45 150 -84 277 -87
282 -3 5 -19 -20 -36 -55 -19 -39 -38 -65 -49 -67 -26 -5 -56 25 -81 83 -12
27 -25 45 -28 40z"/>
    </g>
</svg>