<?xml version="1.0" standalone="no"?>
<!DOCTYPE svg PUBLIC "-//W3C//DTD SVG 20010904//EN" "http://www.w3.org/TR/2001/REC-SVG-20010904/DTD/svg10.dtd">
<svg version="1.0" xmlns="http://www.w3.org/2000/svg"
    width="301.000000pt" height="302.000000pt" viewBox="0 0 301.000000 302.000000"
    preserveAspectRatio="xMidYMid meet">

    <g transform="translate(0.000000,302.000000) scale(0.100000,-0.100000)"
        fill="#000000" stroke="none">
        <path d="M1571 2843 c4 -93 7 -250 8 -350 1 -139 4 -183 14 -183 100 3 277 23
355 41 l98 23 -44 81 c-60 110 -151 244 -235 345 -71 86 -187 210 -197 210 -3
0 -2 -75 1 -167z" fill="#013765" />
        <path d="M1185 2984 c-166 -40 -347 -115 -492 -206 -77 -47 -213 -155 -213
-168 0 -9 65 -51 160 -102 77 -42 183 -75 188 -59 6 18 86 134 153 223 35 46
118 138 186 206 132 132 132 133 18 106z" fill="#013765" />
        <path d="M1347 2918 c-125 -132 -246 -298 -340 -469 l-37 -65 53 -17 c75 -23
197 -45 307 -56 52 -5 96 -8 97 -7 8 7 15 696 7 696 -4 0 -44 -37 -87 -82z" fill="#013765" />
        <path d="M1849 2873 c130 -132 211 -230 297 -365 27 -43 54 -77 61 -78 38 -1
323 158 323 180 0 13 -97 91 -184 148 -103 67 -253 144 -342 176 -72 26 -233
66 -263 66 -11 0 28 -47 108 -127z" fill="#013765" />
        <path d="M2565 2484 c-60 -55 -172 -136 -237 -171 -27 -15 -48 -31 -48 -37 0
-6 10 -29 21 -51 38 -70 116 -315 142 -445 14 -69 29 -184 33 -257 l7 -132 67
-15 c82 -19 286 -97 356 -137 28 -16 56 -29 61 -29 29 0 43 326 23 518 -29
269 -155 547 -352 774 l-23 27 -50 -45z" fill="#013765" />
        <path d="M333 2458 c-76 -96 -103 -142 -175 -288 -108 -219 -148 -386 -148
-616 0 -127 15 -340 25 -352 1 -1 32 15 68 37 36 22 96 50 134 62 37 12 73 25
78 29 6 4 56 20 113 36 l102 28 0 123 c0 89 5 144 19 196 10 39 29 119 42 177
12 58 33 130 46 160 13 30 36 84 50 120 14 36 29 69 34 75 17 17 9 33 -22 44
-40 14 -144 88 -236 168 -40 35 -74 63 -77 63 -2 0 -26 -28 -53 -62z" fill="#013765" />
        <path d="M886 2169 c-4 -23 -14 -55 -23 -72 -15 -29 -42 -124 -84 -287 -19
-76 -54 -360 -43 -360 1 0 15 5 31 11 45 17 253 40 451 49 101 4 185 10 187
12 2 2 5 135 7 296 l3 292 -88 0 c-109 0 -382 59 -423 91 -8 7 -13 -3 -18 -32z" fill="#013765" />
        <path d="M2061 2189 c-90 -40 -290 -81 -410 -83 l-53 -1 1 -200 c1 -110 4
-241 7 -291 l7 -92 36 -6 c20 -3 97 -6 172 -6 167 0 379 -30 442 -62 18 -9 18
-5 12 84 -10 141 -41 321 -74 436 -34 119 -80 242 -89 241 -4 0 -27 -9 -51
-20z" fill="#013765" />
        <path d="M870 1369 c-92 -8 -216 -27 -330 -50 -177 -37 -365 -87 -357 -96 3
-2 42 5 88 16 171 40 417 71 578 71 59 0 67 3 102 35 22 19 33 34 27 34 -7 -1
-56 -5 -108 -10z" fill="#498b2a" />
        <path d="M1115 1343 l-60 -38 145 -12 c80 -7 155 -18 168 -23 13 -6 34 -10 49
-10 14 0 81 -16 149 -35 l124 -36 65 56 c36 30 71 55 78 56 23 2 -49 20 -113
28 -36 5 -83 14 -105 19 -47 12 -280 32 -375 32 -58 0 -72 -4 -125 -37z" fill="#498b2a" />
        <path d="M1930 1190 c-35 -32 -62 -61 -60 -63 3 -3 44 -25 92 -50 205 -105
368 -241 468 -392 54 -82 100 -193 100 -242 0 -27 1 -26 51 22 28 28 73 82
100 120 26 39 57 81 68 95 11 14 21 30 21 36 0 24 -101 154 -170 217 -83 77
-170 137 -291 201 -99 53 -259 116 -291 116 -14 -1 -50 -25 -88 -60z" fill="#498b2a" />
        <path d="M450 1211 c-8 -6 -23 -8 -32 -5 -17 5 -213 -26 -308 -49 -52 -13 -55
-15 -52 -43 2 -16 19 -72 39 -124 171 -464 566 -814 1053 -936 111 -28 351
-47 454 -36 l69 7 24 70 c13 39 31 90 40 115 12 34 16 85 17 205 1 142 -2 167
-22 219 -68 184 -239 353 -447 444 -233 101 -353 125 -690 138 -80 3 -136 1
-145 -5z" fill="#498b2a" />
        <path d="M118 1203 c7 -3 16 -2 19 1 4 3 -2 6 -13 5 -11 0 -14 -3 -6 -6z" fill="#498b2a" />
    </g>
</svg>